<svg id="visual" viewBox="0 0 1350 600" width="1350" height="600" xmlns="http://www.w3.org/2000/svg" xmlns:xlink="http://www.w3.org/1999/xlink" version="1.1"><path d="M0 147L32.2 153.3C64.3 159.7 128.7 172.3 193 183.8C257.3 195.3 321.7 205.7 386 202.3C450.3 199 514.7 182 578.8 170.5C643 159 707 153 771.2 158.2C835.3 163.3 899.7 179.7 964 184.5C1028.3 189.3 1092.7 182.7 1157 186.5C1221.3 190.3 1285.7 204.7 1317.8 211.8L1350 219L1350 0L1317.8 0C1285.7 0 1221.3 0 1157 0C1092.7 0 1028.3 0 964 0C899.7 0 835.3 0 771.2 0C707 0 643 0 578.8 0C514.7 0 450.3 0 386 0C321.7 0 257.3 0 193 0C128.7 0 64.3 0 32.2 0L0 0Z" fill="#8fdcc2"></path><path d="M0 112L32.2 120.8C64.3 129.7 128.7 147.3 193 158.5C257.3 169.7 321.7 174.3 386 164.7C450.3 155 514.7 131 578.8 122C643 113 707 119 771.2 128.5C835.3 138 899.7 151 964 151C1028.3 151 1092.7 138 1157 129.2C1221.3 120.3 1285.7 115.7 1317.8 113.3L1350 111L1350 0L1317.8 0C1285.7 0 1221.3 0 1157 0C1092.7 0 1028.3 0 964 0C899.7 0 835.3 0 771.2 0C707 0 643 0 578.8 0C514.7 0 450.3 0 386 0C321.7 0 257.3 0 193 0C128.7 0 64.3 0 32.2 0L0 0Z" fill="#63af9a"></path><path d="M0 121L32.2 120.3C64.3 119.7 128.7 118.3 193 119.3C257.3 120.3 321.7 123.7 386 119.7C450.3 115.7 514.7 104.3 578.8 100.7C643 97 707 101 771.2 105.3C835.3 109.7 899.7 114.3 964 113.8C1028.3 113.3 1092.7 107.7 1157 105.2C1221.3 102.7 1285.7 103.3 1317.8 103.7L1350 104L1350 0L1317.8 0C1285.7 0 1221.3 0 1157 0C1092.7 0 1028.3 0 964 0C899.7 0 835.3 0 771.2 0C707 0 643 0 578.8 0C514.7 0 450.3 0 386 0C321.7 0 257.3 0 193 0C128.7 0 64.3 0 32.2 0L0 0Z" fill="#388373"></path><path d="M0 87L32.2 80.5C64.3 74 128.7 61 193 60.5C257.3 60 321.7 72 386 71.5C450.3 71 514.7 58 578.8 49.7C643 41.3 707 37.7 771.2 43.3C835.3 49 899.7 64 964 65.3C1028.3 66.7 1092.7 54.3 1157 46C1221.3 37.7 1285.7 33.3 1317.8 31.2L1350 29L1350 0L1317.8 0C1285.7 0 1221.3 0 1157 0C1092.7 0 1028.3 0 964 0C899.7 0 835.3 0 771.2 0C707 0 643 0 578.8 0C514.7 0 450.3 0 386 0C321.7 0 257.3 0 193 0C128.7 0 64.3 0 32.2 0L0 0Z" fill="#025a4e"></path></svg>