<svg xmlns="http://www.w3.org/2000/svg" xmlns:xlink="http://www.w3.org/1999/xlink" version="1.1" width="1000" height="1000" viewBox="0 0 1000 1000" xml:space="preserve">
<desc>Created with Fabric.js 3.5.0</desc>
<defs>
</defs>
<rect x="0" y="0" width="100%" height="100%" fill="#ffffff"/>
<g transform="matrix(1.1068 0 0 -1.0101 498.06 303.03)" id="765386">
<g style="" vector-effect="non-scaling-stroke">
		<g transform="matrix(1 0 0 1 0 187)" id="visual">
<path style="stroke: none; stroke-width: 1; stroke-dasharray: none; stroke-linecap: butt; stroke-dashoffset: 0; stroke-linejoin: miter; stroke-miterlimit: 4; is-custom-font: none; font-file-url: none; fill: rgb(143,220,194); fill-rule: nonzero; opacity: 1;" transform=" translate(-450, -487)" d="M 0 388 L 21.5 394.7 C 43 401.3 86 414.7 128.8 417.3 C 171.7 420 214.3 412 257.2 415 C 300 418 343 432 385.8 431.3 C 428.7 430.7 471.3 415.3 514.2 415.8 C 557 416.3 600 432.7 642.8 440.5 C 685.7 448.3 728.3 447.7 771.2 435 C 814 422.3 857 397.7 878.5 385.3 L 900 373 L 900 601 L 878.5 601 C 857 601 814 601 771.2 601 C 728.3 601 685.7 601 642.8 601 C 600 601 557 601 514.2 601 C 471.3 601 428.7 601 385.8 601 C 343 601 300 601 257.2 601 C 214.3 601 171.7 601 128.8 601 C 86 601 43 601 21.5 601 L 0 601 Z" stroke-linecap="round"/>
</g>
		<g transform="matrix(1 0 0 1 0 213.6614)" id="visual">
<path style="stroke: none; stroke-width: 1; stroke-dasharray: none; stroke-linecap: butt; stroke-dashoffset: 0; stroke-linejoin: miter; stroke-miterlimit: 4; is-custom-font: none; font-file-url: none; fill: rgb(110,186,164); fill-rule: nonzero; opacity: 1;" transform=" translate(-450, -513.6615)" d="M 0 473 L 21.5 464.3 C 43 455.7 86 438.3 128.8 431 C 171.7 423.7 214.3 426.3 257.2 429.7 C 300 433 343 437 385.8 444.2 C 428.7 451.3 471.3 461.7 514.2 466.8 C 557 472 600 472 642.8 467.8 C 685.7 463.7 728.3 455.3 771.2 448.5 C 814 441.7 857 436.3 878.5 433.7 L 900 431 L 900 601 L 878.5 601 C 857 601 814 601 771.2 601 C 728.3 601 685.7 601 642.8 601 C 600 601 557 601 514.2 601 C 471.3 601 428.7 601 385.8 601 C 343 601 300 601 257.2 601 C 214.3 601 171.7 601 128.8 601 C 86 601 43 601 21.5 601 L 0 601 Z" stroke-linecap="round"/>
</g>
		<g transform="matrix(1 0 0 1 0 224.5)" id="visual">
<path style="stroke: none; stroke-width: 1; stroke-dasharray: none; stroke-linecap: butt; stroke-dashoffset: 0; stroke-linejoin: miter; stroke-miterlimit: 4; is-custom-font: none; font-file-url: none; fill: rgb(78,153,134); fill-rule: nonzero; opacity: 1;" transform=" translate(-450, -524.5)" d="M 0 465 L 21.5 460.7 C 43 456.3 86 447.7 128.8 449.3 C 171.7 451 214.3 463 257.2 474.5 C 300 486 343 497 385.8 493.2 C 428.7 489.3 471.3 470.7 514.2 466.7 C 557 462.7 600 473.3 642.8 477.2 C 685.7 481 728.3 478 771.2 472 C 814 466 857 457 878.5 452.5 L 900 448 L 900 601 L 878.5 601 C 857 601 814 601 771.2 601 C 728.3 601 685.7 601 642.8 601 C 600 601 557 601 514.2 601 C 471.3 601 428.7 601 385.8 601 C 343 601 300 601 257.2 601 C 214.3 601 171.7 601 128.8 601 C 86 601 43 601 21.5 601 L 0 601 Z" stroke-linecap="round"/>
</g>
		<g transform="matrix(1 0 0 1 0 248)" id="visual">
<path style="stroke: none; stroke-width: 1; stroke-dasharray: none; stroke-linecap: butt; stroke-dashoffset: 0; stroke-linejoin: miter; stroke-miterlimit: 4; is-custom-font: none; font-file-url: none; fill: rgb(45,121,105); fill-rule: nonzero; opacity: 1;" transform=" translate(-450, -548)" d="M 0 538 L 21.5 536 C 43 534 86 530 128.8 526.8 C 171.7 523.7 214.3 521.3 257.2 520.3 C 300 519.3 343 519.7 385.8 517.3 C 428.7 515 471.3 510 514.2 504.2 C 557 498.3 600 491.7 642.8 497 C 685.7 502.3 728.3 519.7 771.2 521.3 C 814 523 857 509 878.5 502 L 900 495 L 900 601 L 878.5 601 C 857 601 814 601 771.2 601 C 728.3 601 685.7 601 642.8 601 C 600 601 557 601 514.2 601 C 471.3 601 428.7 601 385.8 601 C 343 601 300 601 257.2 601 C 214.3 601 171.7 601 128.8 601 C 86 601 43 601 21.5 601 L 0 601 Z" stroke-linecap="round"/>
</g>
		<g transform="matrix(1 0 0 1 0 267.4882)" id="visual">
<path style="stroke: none; stroke-width: 1; stroke-dasharray: none; stroke-linecap: butt; stroke-dashoffset: 0; stroke-linejoin: miter; stroke-miterlimit: 4; is-custom-font: none; font-file-url: none; fill: rgb(2,90,78); fill-rule: nonzero; opacity: 1;" transform=" translate(-450, -567.4882)" d="M 0 550 L 21.5 548.2 C 43 546.3 86 542.7 128.8 539.5 C 171.7 536.3 214.3 533.7 257.2 534 C 300 534.3 343 537.7 385.8 541.2 C 428.7 544.7 471.3 548.3 514.2 549 C 557 549.7 600 547.3 642.8 547.7 C 685.7 548 728.3 551 771.2 552.2 C 814 553.3 857 552.7 878.5 552.3 L 900 552 L 900 601 L 878.5 601 C 857 601 814 601 771.2 601 C 728.3 601 685.7 601 642.8 601 C 600 601 557 601 514.2 601 C 471.3 601 428.7 601 385.8 601 C 343 601 300 601 257.2 601 C 214.3 601 171.7 601 128.8 601 C 86 601 43 601 21.5 601 L 0 601 Z" stroke-linecap="round"/>
</g>
</g>
</g>
</svg>