<svg id="visual" viewBox="0 0 1350 600" width="1350" height="600" xmlns="http://www.w3.org/2000/svg" xmlns:xlink="http://www.w3.org/1999/xlink" version="1.1"><path d="M0 451L32.2 444.7C64.3 438.3 128.7 425.7 193 414.2C257.3 402.7 321.7 392.3 386 395.7C450.3 399 514.7 416 578.8 427.5C643 439 707 445 771.2 439.8C835.3 434.7 899.7 418.3 964 413.5C1028.3 408.7 1092.7 415.3 1157 411.5C1221.3 407.7 1285.7 393.3 1317.8 386.2L1350 379L1350 601L1317.8 601C1285.7 601 1221.3 601 1157 601C1092.7 601 1028.3 601 964 601C899.7 601 835.3 601 771.2 601C707 601 643 601 578.8 601C514.7 601 450.3 601 386 601C321.7 601 257.3 601 193 601C128.7 601 64.3 601 32.2 601L0 601Z" fill="#8fdcc2"></path><path d="M0 486L32.2 477.2C64.3 468.3 128.7 450.7 193 439.5C257.3 428.3 321.7 423.7 386 433.3C450.3 443 514.7 467 578.8 476C643 485 707 479 771.2 469.5C835.3 460 899.7 447 964 447C1028.3 447 1092.7 460 1157 468.8C1221.3 477.7 1285.7 482.3 1317.8 484.7L1350 487L1350 601L1317.8 601C1285.7 601 1221.3 601 1157 601C1092.7 601 1028.3 601 964 601C899.7 601 835.3 601 771.2 601C707 601 643 601 578.8 601C514.7 601 450.3 601 386 601C321.7 601 257.3 601 193 601C128.7 601 64.3 601 32.2 601L0 601Z" fill="#63af9a"></path><path d="M0 477L32.2 477.7C64.3 478.3 128.7 479.7 193 478.7C257.3 477.7 321.7 474.3 386 478.3C450.3 482.3 514.7 493.7 578.8 497.3C643 501 707 497 771.2 492.7C835.3 488.3 899.7 483.7 964 484.2C1028.3 484.7 1092.7 490.3 1157 492.8C1221.3 495.3 1285.7 494.7 1317.8 494.3L1350 494L1350 601L1317.8 601C1285.7 601 1221.3 601 1157 601C1092.7 601 1028.3 601 964 601C899.7 601 835.3 601 771.2 601C707 601 643 601 578.8 601C514.7 601 450.3 601 386 601C321.7 601 257.3 601 193 601C128.7 601 64.3 601 32.2 601L0 601Z" fill="#388373"></path><path d="M0 511L32.2 517.5C64.3 524 128.7 537 193 537.5C257.3 538 321.7 526 386 526.5C450.3 527 514.7 540 578.8 548.3C643 556.7 707 560.3 771.2 554.7C835.3 549 899.7 534 964 532.7C1028.3 531.3 1092.7 543.7 1157 552C1221.3 560.3 1285.7 564.7 1317.8 566.8L1350 569L1350 601L1317.8 601C1285.7 601 1221.3 601 1157 601C1092.7 601 1028.3 601 964 601C899.7 601 835.3 601 771.2 601C707 601 643 601 578.8 601C514.7 601 450.3 601 386 601C321.7 601 257.3 601 193 601C128.7 601 64.3 601 32.2 601L0 601Z" fill="#025a4e"></path></svg>