<svg id="visual" viewBox="0 0 1350 600" width="1350" height="600" xmlns="http://www.w3.org/2000/svg" xmlns:xlink="http://www.w3.org/1999/xlink" version="1.1"><path d="M0 540L32.2 537.5C64.3 535 128.7 530 193 525.3C257.3 520.7 321.7 516.3 386 517.7C450.3 519 514.7 526 578.8 530.7C643 535.3 707 537.7 771.2 535.5C835.3 533.3 899.7 526.7 964 524.7C1028.3 522.7 1092.7 525.3 1157 523.8C1221.3 522.3 1285.7 516.7 1317.8 513.8L1350 511L1350 601L1317.8 601C1285.7 601 1221.3 601 1157 601C1092.7 601 1028.3 601 964 601C899.7 601 835.3 601 771.2 601C707 601 643 601 578.8 601C514.7 601 450.3 601 386 601C321.7 601 257.3 601 193 601C128.7 601 64.3 601 32.2 601L0 601Z" fill="#8fdcc2"></path><path d="M0 554L32.2 550.5C64.3 547 128.7 540 193 535.5C257.3 531 321.7 529 386 532.8C450.3 536.7 514.7 546.3 578.8 550C643 553.7 707 551.3 771.2 547.5C835.3 543.7 899.7 538.3 964 538.3C1028.3 538.3 1092.7 543.7 1157 547.2C1221.3 550.7 1285.7 552.3 1317.8 553.2L1350 554L1350 601L1317.8 601C1285.7 601 1221.3 601 1157 601C1092.7 601 1028.3 601 964 601C899.7 601 835.3 601 771.2 601C707 601 643 601 578.8 601C514.7 601 450.3 601 386 601C321.7 601 257.3 601 193 601C128.7 601 64.3 601 32.2 601L0 601Z" fill="#63af9a"></path><path d="M0 550L32.2 550.3C64.3 550.7 128.7 551.3 193 551C257.3 550.7 321.7 549.3 386 551C450.3 552.7 514.7 557.3 578.8 558.8C643 560.3 707 558.7 771.2 556.8C835.3 555 899.7 553 964 553.2C1028.3 553.3 1092.7 555.7 1157 556.7C1221.3 557.7 1285.7 557.3 1317.8 557.2L1350 557L1350 601L1317.8 601C1285.7 601 1221.3 601 1157 601C1092.7 601 1028.3 601 964 601C899.7 601 835.3 601 771.2 601C707 601 643 601 578.8 601C514.7 601 450.3 601 386 601C321.7 601 257.3 601 193 601C128.7 601 64.3 601 32.2 601L0 601Z" fill="#388373"></path><path d="M0 564L32.2 566.7C64.3 569.3 128.7 574.7 193 574.8C257.3 575 321.7 570 386 570.2C450.3 570.3 514.7 575.7 578.8 579C643 582.3 707 583.7 771.2 581.3C835.3 579 899.7 573 964 572.5C1028.3 572 1092.7 577 1157 580.3C1221.3 583.7 1285.7 585.3 1317.8 586.2L1350 587L1350 601L1317.8 601C1285.7 601 1221.3 601 1157 601C1092.7 601 1028.3 601 964 601C899.7 601 835.3 601 771.2 601C707 601 643 601 578.8 601C514.7 601 450.3 601 386 601C321.7 601 257.3 601 193 601C128.7 601 64.3 601 32.2 601L0 601Z" fill="#025a4e"></path></svg>