<svg id="visual" viewBox="0 0 1350 450" width="1350" height="450" xmlns="http://www.w3.org/2000/svg" xmlns:xlink="http://www.w3.org/1999/xlink" version="1.1"><path d="M0 175L32.2 166C64.3 157 128.7 139 193 139.2C257.3 139.3 321.7 157.7 386 164.8C450.3 172 514.7 168 578.8 162.3C643 156.7 707 149.3 771.2 142.5C835.3 135.7 899.7 129.3 964 135.8C1028.3 142.3 1092.7 161.7 1157 169.3C1221.3 177 1285.7 173 1317.8 171L1350 169L1350 0L1317.8 0C1285.7 0 1221.3 0 1157 0C1092.7 0 1028.3 0 964 0C899.7 0 835.3 0 771.2 0C707 0 643 0 578.8 0C514.7 0 450.3 0 386 0C321.7 0 257.3 0 193 0C128.7 0 64.3 0 32.2 0L0 0Z" fill="#025a4e"></path><path d="M0 133L32.2 127.5C64.3 122 128.7 111 193 106.7C257.3 102.3 321.7 104.7 386 105.5C450.3 106.3 514.7 105.7 578.8 108.7C643 111.7 707 118.3 771.2 118.5C835.3 118.7 899.7 112.3 964 114.2C1028.3 116 1092.7 126 1157 129.7C1221.3 133.3 1285.7 130.7 1317.8 129.3L1350 128L1350 0L1317.8 0C1285.7 0 1221.3 0 1157 0C1092.7 0 1028.3 0 964 0C899.7 0 835.3 0 771.2 0C707 0 643 0 578.8 0C514.7 0 450.3 0 386 0C321.7 0 257.3 0 193 0C128.7 0 64.3 0 32.2 0L0 0Z" fill="#156f5f"></path><path d="M0 95L32.2 97.7C64.3 100.3 128.7 105.7 193 103.3C257.3 101 321.7 91 386 90C450.3 89 514.7 97 578.8 102.8C643 108.7 707 112.3 771.2 111.2C835.3 110 899.7 104 964 96.7C1028.3 89.3 1092.7 80.7 1157 75.3C1221.3 70 1285.7 68 1317.8 67L1350 66L1350 0L1317.8 0C1285.7 0 1221.3 0 1157 0C1092.7 0 1028.3 0 964 0C899.7 0 835.3 0 771.2 0C707 0 643 0 578.8 0C514.7 0 450.3 0 386 0C321.7 0 257.3 0 193 0C128.7 0 64.3 0 32.2 0L0 0Z" fill="#27856f"></path><path d="M0 53L32.2 56.8C64.3 60.7 128.7 68.3 193 71.8C257.3 75.3 321.7 74.7 386 70.8C450.3 67 514.7 60 578.8 58.2C643 56.3 707 59.7 771.2 62.8C835.3 66 899.7 69 964 67.5C1028.3 66 1092.7 60 1157 55.2C1221.3 50.3 1285.7 46.7 1317.8 44.8L1350 43L1350 0L1317.8 0C1285.7 0 1221.3 0 1157 0C1092.7 0 1028.3 0 964 0C899.7 0 835.3 0 771.2 0C707 0 643 0 578.8 0C514.7 0 450.3 0 386 0C321.7 0 257.3 0 193 0C128.7 0 64.3 0 32.2 0L0 0Z" fill="#399c80"></path><path d="M0 18L32.2 20.3C64.3 22.7 128.7 27.3 193 28.8C257.3 30.3 321.7 28.7 386 28.3C450.3 28 514.7 29 578.8 30.2C643 31.3 707 32.7 771.2 30.7C835.3 28.7 899.7 23.3 964 20.7C1028.3 18 1092.7 18 1157 19.3C1221.3 20.7 1285.7 23.3 1317.8 24.7L1350 26L1350 0L1317.8 0C1285.7 0 1221.3 0 1157 0C1092.7 0 1028.3 0 964 0C899.7 0 835.3 0 771.2 0C707 0 643 0 578.8 0C514.7 0 450.3 0 386 0C321.7 0 257.3 0 193 0C128.7 0 64.3 0 32.2 0L0 0Z" fill="#4bb390"></path></svg>