<svg id="visual" viewBox="0 0 900 600" width="900" height="600" xmlns="http://www.w3.org/2000/svg" xmlns:xlink="http://www.w3.org/1999/xlink" version="1.1"><path d="M0 388L21.5 394.7C43 401.3 86 414.7 128.8 417.3C171.7 420 214.3 412 257.2 415C300 418 343 432 385.8 431.3C428.7 430.7 471.3 415.3 514.2 415.8C557 416.3 600 432.7 642.8 440.5C685.7 448.3 728.3 447.7 771.2 435C814 422.3 857 397.7 878.5 385.3L900 373L900 601L878.5 601C857 601 814 601 771.2 601C728.3 601 685.7 601 642.8 601C600 601 557 601 514.2 601C471.3 601 428.7 601 385.8 601C343 601 300 601 257.2 601C214.3 601 171.7 601 128.8 601C86 601 43 601 21.5 601L0 601Z" fill="#8fdcc2"></path><path d="M0 473L21.5 464.3C43 455.7 86 438.3 128.8 431C171.7 423.7 214.3 426.3 257.2 429.7C300 433 343 437 385.8 444.2C428.7 451.3 471.3 461.7 514.2 466.8C557 472 600 472 642.8 467.8C685.7 463.7 728.3 455.3 771.2 448.5C814 441.7 857 436.3 878.5 433.7L900 431L900 601L878.5 601C857 601 814 601 771.2 601C728.3 601 685.7 601 642.8 601C600 601 557 601 514.2 601C471.3 601 428.7 601 385.8 601C343 601 300 601 257.2 601C214.3 601 171.7 601 128.8 601C86 601 43 601 21.5 601L0 601Z" fill="#6ebaa4"></path><path d="M0 465L21.5 460.7C43 456.3 86 447.7 128.8 449.3C171.7 451 214.3 463 257.2 474.5C300 486 343 497 385.8 493.2C428.7 489.3 471.3 470.7 514.2 466.7C557 462.7 600 473.3 642.8 477.2C685.7 481 728.3 478 771.2 472C814 466 857 457 878.5 452.5L900 448L900 601L878.5 601C857 601 814 601 771.2 601C728.3 601 685.7 601 642.8 601C600 601 557 601 514.2 601C471.3 601 428.7 601 385.8 601C343 601 300 601 257.2 601C214.3 601 171.7 601 128.8 601C86 601 43 601 21.5 601L0 601Z" fill="#4e9986"></path><path d="M0 538L21.5 536C43 534 86 530 128.8 526.8C171.7 523.7 214.3 521.3 257.2 520.3C300 519.3 343 519.7 385.8 517.3C428.7 515 471.3 510 514.2 504.2C557 498.3 600 491.7 642.8 497C685.7 502.3 728.3 519.7 771.2 521.3C814 523 857 509 878.5 502L900 495L900 601L878.5 601C857 601 814 601 771.2 601C728.3 601 685.7 601 642.8 601C600 601 557 601 514.2 601C471.3 601 428.7 601 385.8 601C343 601 300 601 257.2 601C214.3 601 171.7 601 128.8 601C86 601 43 601 21.5 601L0 601Z" fill="#2d7969"></path><path d="M0 550L21.5 548.2C43 546.3 86 542.7 128.8 539.5C171.7 536.3 214.3 533.7 257.2 534C300 534.3 343 537.7 385.8 541.2C428.7 544.7 471.3 548.3 514.2 549C557 549.7 600 547.3 642.8 547.7C685.7 548 728.3 551 771.2 552.2C814 553.3 857 552.7 878.5 552.3L900 552L900 601L878.5 601C857 601 814 601 771.2 601C728.3 601 685.7 601 642.8 601C600 601 557 601 514.2 601C471.3 601 428.7 601 385.8 601C343 601 300 601 257.2 601C214.3 601 171.7 601 128.8 601C86 601 43 601 21.5 601L0 601Z" fill="#025a4e"></path></svg>