<svg id="visual" viewBox="0 0 900 450" width="900" height="450" xmlns="http://www.w3.org/2000/svg" xmlns:xlink="http://www.w3.org/1999/xlink" version="1.1"><rect x="0" y="0" width="900" height="450" fill="#001220"></rect><path d="M0 175L21.5 166C43 157 86 139 128.8 139.2C171.7 139.3 214.3 157.7 257.2 164.8C300 172 343 168 385.8 162.3C428.7 156.7 471.3 149.3 514.2 142.5C557 135.7 600 129.3 642.8 135.8C685.7 142.3 728.3 161.7 771.2 169.3C814 177 857 173 878.5 171L900 169L900 0L878.5 0C857 0 814 0 771.2 0C728.3 0 685.7 0 642.8 0C600 0 557 0 514.2 0C471.3 0 428.7 0 385.8 0C343 0 300 0 257.2 0C214.3 0 171.7 0 128.8 0C86 0 43 0 21.5 0L0 0Z" fill="#025a4e"></path><path d="M0 133L21.5 127.5C43 122 86 111 128.8 106.7C171.7 102.3 214.3 104.7 257.2 105.5C300 106.3 343 105.7 385.8 108.7C428.7 111.7 471.3 118.3 514.2 118.5C557 118.7 600 112.3 642.8 114.2C685.7 116 728.3 126 771.2 129.7C814 133.3 857 130.7 878.5 129.3L900 128L900 0L878.5 0C857 0 814 0 771.2 0C728.3 0 685.7 0 642.8 0C600 0 557 0 514.2 0C471.3 0 428.7 0 385.8 0C343 0 300 0 257.2 0C214.3 0 171.7 0 128.8 0C86 0 43 0 21.5 0L0 0Z" fill="#156f5f"></path><path d="M0 95L21.5 97.7C43 100.3 86 105.7 128.8 103.3C171.7 101 214.3 91 257.2 90C300 89 343 97 385.8 102.8C428.7 108.7 471.3 112.3 514.2 111.2C557 110 600 104 642.8 96.7C685.7 89.3 728.3 80.7 771.2 75.3C814 70 857 68 878.5 67L900 66L900 0L878.5 0C857 0 814 0 771.2 0C728.3 0 685.7 0 642.8 0C600 0 557 0 514.2 0C471.3 0 428.7 0 385.8 0C343 0 300 0 257.2 0C214.3 0 171.7 0 128.8 0C86 0 43 0 21.5 0L0 0Z" fill="#27856f"></path><path d="M0 53L21.5 56.8C43 60.7 86 68.3 128.8 71.8C171.7 75.3 214.3 74.7 257.2 70.8C300 67 343 60 385.8 58.2C428.7 56.3 471.3 59.7 514.2 62.8C557 66 600 69 642.8 67.5C685.7 66 728.3 60 771.2 55.2C814 50.3 857 46.7 878.5 44.8L900 43L900 0L878.5 0C857 0 814 0 771.2 0C728.3 0 685.7 0 642.8 0C600 0 557 0 514.2 0C471.3 0 428.7 0 385.8 0C343 0 300 0 257.2 0C214.3 0 171.7 0 128.8 0C86 0 43 0 21.5 0L0 0Z" fill="#399c80"></path><path d="M0 18L21.5 20.3C43 22.7 86 27.3 128.8 28.8C171.7 30.3 214.3 28.7 257.2 28.3C300 28 343 29 385.8 30.2C428.7 31.3 471.3 32.7 514.2 30.7C557 28.7 600 23.3 642.8 20.7C685.7 18 728.3 18 771.2 19.3C814 20.7 857 23.3 878.5 24.7L900 26L900 0L878.5 0C857 0 814 0 771.2 0C728.3 0 685.7 0 642.8 0C600 0 557 0 514.2 0C471.3 0 428.7 0 385.8 0C343 0 300 0 257.2 0C214.3 0 171.7 0 128.8 0C86 0 43 0 21.5 0L0 0Z" fill="#4bb390"></path></svg>