<svg id="visual" viewBox="0 0 1350 600" width="1350" height="600" xmlns="http://www.w3.org/2000/svg" xmlns:xlink="http://www.w3.org/1999/xlink" version="1.1"><path d="M0 58L32.2 60.5C64.3 63 128.7 68 193 72.7C257.3 77.3 321.7 81.7 386 80.3C450.3 79 514.7 72 578.8 67.3C643 62.7 707 60.3 771.2 62.5C835.3 64.7 899.7 71.3 964 73.3C1028.3 75.3 1092.7 72.7 1157 74.2C1221.3 75.7 1285.7 81.3 1317.8 84.2L1350 87L1350 0L1317.8 0C1285.7 0 1221.3 0 1157 0C1092.7 0 1028.3 0 964 0C899.7 0 835.3 0 771.2 0C707 0 643 0 578.8 0C514.7 0 450.3 0 386 0C321.7 0 257.3 0 193 0C128.7 0 64.3 0 32.2 0L0 0Z" fill="#8fdcc2"></path><path d="M0 44L32.2 47.5C64.3 51 128.7 58 193 62.5C257.3 67 321.7 69 386 65.2C450.3 61.3 514.7 51.7 578.8 48C643 44.3 707 46.7 771.2 50.5C835.3 54.3 899.7 59.7 964 59.7C1028.3 59.7 1092.7 54.3 1157 50.8C1221.3 47.3 1285.7 45.7 1317.8 44.8L1350 44L1350 0L1317.8 0C1285.7 0 1221.3 0 1157 0C1092.7 0 1028.3 0 964 0C899.7 0 835.3 0 771.2 0C707 0 643 0 578.8 0C514.7 0 450.3 0 386 0C321.7 0 257.3 0 193 0C128.7 0 64.3 0 32.2 0L0 0Z" fill="#63af9a"></path><path d="M0 48L32.2 47.7C64.3 47.3 128.7 46.7 193 47C257.3 47.3 321.7 48.7 386 47C450.3 45.3 514.7 40.7 578.8 39.2C643 37.7 707 39.3 771.2 41.2C835.3 43 899.7 45 964 44.8C1028.3 44.7 1092.7 42.3 1157 41.3C1221.3 40.3 1285.7 40.7 1317.8 40.8L1350 41L1350 0L1317.8 0C1285.7 0 1221.3 0 1157 0C1092.7 0 1028.3 0 964 0C899.7 0 835.3 0 771.2 0C707 0 643 0 578.8 0C514.7 0 450.3 0 386 0C321.7 0 257.3 0 193 0C128.7 0 64.3 0 32.2 0L0 0Z" fill="#388373"></path><path d="M0 34L32.2 31.3C64.3 28.7 128.7 23.3 193 23.2C257.3 23 321.7 28 386 27.8C450.3 27.7 514.7 22.3 578.8 19C643 15.7 707 14.3 771.2 16.7C835.3 19 899.7 25 964 25.5C1028.3 26 1092.7 21 1157 17.7C1221.3 14.3 1285.7 12.7 1317.8 11.8L1350 11L1350 0L1317.8 0C1285.7 0 1221.3 0 1157 0C1092.7 0 1028.3 0 964 0C899.7 0 835.3 0 771.2 0C707 0 643 0 578.8 0C514.7 0 450.3 0 386 0C321.7 0 257.3 0 193 0C128.7 0 64.3 0 32.2 0L0 0Z" fill="#025a4e"></path></svg>